<?xml version="1.0" encoding="UTF-8"?>
<svg xmlns="http://www.w3.org/2000/svg" viewBox="0 0 200 200" width="200" height="200">
  <defs>
    <linearGradient id="g" x1="0" x2="1" y1="0" y2="1">
      <stop offset="0%" stop-color="#38bdf8" />
      <stop offset="100%" stop-color="#0366d6" />
    </linearGradient>
  </defs>
  <!-- outer gear -->
  <g transform="translate(100,100)">
    <circle r="70" fill="none" stroke="url(#g)" stroke-width="6" opacity="0.12" />
    <g fill="none" stroke="url(#g)" stroke-width="6">
      <!-- simplified gear teeth -->
      <path d="M-78,0 L-90,6 L-90,-6 Z" transform="rotate(0)" />
      <path d="M-78,0 L-90,6 L-90,-6 Z" transform="rotate(30)" />
      <path d="M-78,0 L-90,6 L-90,-6 Z" transform="rotate(60)" />
      <path d="M-78,0 L-90,6 L-90,-6 Z" transform="rotate(90)" />
      <path d="M-78,0 L-90,6 L-90,-6 Z" transform="rotate(120)" />
      <path d="M-78,0 L-90,6 L-90,-6 Z" transform="rotate(150)" />
      <path d="M-78,0 L-90,6 L-90,-6 Z" transform="rotate(180)" />
      <path d="M-78,0 L-90,6 L-90,-6 Z" transform="rotate(210)" />
      <path d="M-78,0 L-90,6 L-90,-6 Z" transform="rotate(240)" />
      <path d="M-78,0 L-90,6 L-90,-6 Z" transform="rotate(270)" />
      <path d="M-78,0 L-90,6 L-90,-6 Z" transform="rotate(300)" />
      <path d="M-78,0 L-90,6 L-90,-6 Z" transform="rotate(330)" />
    </g>

    <!-- central circle -->
    <circle r="50" fill="#07131a" opacity="0.9" />

    <!-- bar chart (three bars) -->
    <rect x="-20" y="6" width="10" height="28" rx="2" fill="url(#g)" />
    <rect x="-2" y="-6" width="10" height="40" rx="2" fill="#22c1c3" />
    <rect x="16" y="-18" width="10" height="56" rx="2" fill="#2ecc71" />

    <!-- decorative dots -->
    <circle cx="-46" cy="-36" r="4" fill="#22c1c3" />
    <circle cx="46" cy="36" r="4" fill="#2ecc71" />
  </g>
</svg>
